<svg width="14" height="14" viewBox="0 0 14 14" fill="none" xmlns="http://www.w3.org/2000/svg">
<path d="M7.00793 0.5C7.49726 0.505333 7.9846 0.562 8.4626 0.668667C8.56429 0.691366 8.65635 0.745268 8.72591 0.82284C8.79548 0.900412 8.83907 0.997778 8.8506 1.10133L8.96393 2.11933C8.97993 2.26286 9.0294 2.40062 9.10835 2.52154C9.18731 2.64246 9.29354 2.74315 9.41851 2.81553C9.54348 2.8879 9.68369 2.92993 9.82786 2.93823C9.97204 2.94654 10.1161 2.92088 10.2486 2.86333L11.1826 2.45333C11.2774 2.41157 11.3829 2.40029 11.4844 2.42108C11.5859 2.44186 11.6785 2.49366 11.7493 2.56933C12.4239 3.29006 12.9263 4.15441 13.2186 5.09733C13.2493 5.19642 13.2483 5.3026 13.216 5.40114C13.1836 5.49968 13.1214 5.58572 13.0379 5.64733L12.2099 6.258C12.0935 6.34353 11.9988 6.45527 11.9336 6.58417C11.8683 6.71307 11.8343 6.85552 11.8343 7C11.8343 7.14448 11.8683 7.28693 11.9336 7.41583C11.9988 7.54473 12.0935 7.65647 12.2099 7.742L13.0386 8.352C13.1223 8.41357 13.1847 8.49968 13.2172 8.59837C13.2497 8.69706 13.2507 8.80342 13.2199 8.90267C12.9275 9.84555 12.4251 10.7099 11.7506 11.4307C11.68 11.5062 11.5877 11.5579 11.4865 11.5788C11.3852 11.5997 11.28 11.5887 11.1853 11.5473L10.2473 11.136C10.115 11.078 9.97092 11.052 9.82672 11.06C9.68251 11.068 9.54222 11.1099 9.4172 11.1822C9.29217 11.2545 9.18593 11.3552 9.10707 11.4762C9.02821 11.5972 8.97895 11.7351 8.96326 11.8787L8.8506 12.896C8.83924 12.9984 8.7965 13.0948 8.72824 13.1721C8.65998 13.2493 8.56953 13.3035 8.46926 13.3273C7.50363 13.5571 6.49756 13.5571 5.53193 13.3273C5.43166 13.3035 5.34121 13.2493 5.27295 13.1721C5.20469 13.0948 5.16196 12.9984 5.1506 12.896L5.0386 11.88C5.02227 11.7368 4.97256 11.5994 4.89348 11.4789C4.81439 11.3584 4.70813 11.2581 4.58325 11.1861C4.45836 11.1142 4.31833 11.0725 4.17441 11.0645C4.03049 11.0565 3.8867 11.0823 3.7546 11.14L2.81726 11.5507C2.72245 11.5922 2.61708 11.6033 2.5157 11.5824C2.41432 11.5615 2.32192 11.5096 2.25126 11.434C1.5764 10.7124 1.07402 9.84715 0.78193 8.90333C0.751194 8.80408 0.752141 8.69772 0.784639 8.59903C0.817136 8.50035 0.87957 8.41424 0.963263 8.35267L1.79193 7.742C1.90849 7.65655 2.00329 7.54485 2.06863 7.41594C2.13397 7.28702 2.16802 7.14453 2.16802 7C2.16802 6.85547 2.13397 6.71298 2.06863 6.58406C2.00329 6.45515 1.90849 6.34344 1.79193 6.258L0.963263 5.64867C0.879688 5.58701 0.817387 5.50086 0.785011 5.40218C0.752635 5.3035 0.751791 5.19718 0.782597 5.098C1.07495 4.15508 1.57732 3.29074 2.25193 2.57C2.32272 2.49433 2.41527 2.44252 2.51679 2.42174C2.6183 2.40096 2.72377 2.41223 2.8186 2.454L3.75193 2.864C3.88461 2.92151 4.02893 2.94711 4.17329 2.93872C4.31766 2.93034 4.45805 2.88821 4.58318 2.81573C4.70831 2.74324 4.81469 2.64242 4.89379 2.52136C4.97288 2.4003 5.02248 2.26237 5.0386 2.11867L5.15193 1.10133C5.16337 0.99757 5.207 0.899989 5.2767 0.822276C5.34641 0.744563 5.43868 0.690616 5.5406 0.668C6.0186 0.562 6.50726 0.506 7.00793 0.5ZM6.99993 5C6.4695 5 5.96079 5.21071 5.58572 5.58579C5.21064 5.96086 4.99993 6.46957 4.99993 7C4.99993 7.53043 5.21064 8.03914 5.58572 8.41421C5.96079 8.78929 6.4695 9 6.99993 9C7.53036 9 8.03907 8.78929 8.41414 8.41421C8.78922 8.03914 8.99993 7.53043 8.99993 7C8.99993 6.46957 8.78922 5.96086 8.41414 5.58579C8.03907 5.21071 7.53036 5 6.99993 5Z" fill="#2F80ED"/>
</svg>
